<svg width="6" height="8" viewBox="0 0 6 8" fill="none" xmlns="http://www.w3.org/2000/svg">
<path d="M1.91304 3.15964C1.9707 3.15964 2.02599 3.18261 2.06676 3.22351C2.10753 3.26441 2.13043 3.31987 2.13043 3.37771V5.99456C2.13043 6.05239 2.10753 6.10786 2.06676 6.14876C2.02599 6.18965 1.9707 6.21263 1.91304 6.21263C1.85538 6.21263 1.80009 6.18965 1.75932 6.14876C1.71855 6.10786 1.69565 6.05239 1.69565 5.99456V3.37771C1.69565 3.31987 1.71855 3.26441 1.75932 3.22351C1.80009 3.18261 1.85538 3.15964 1.91304 3.15964ZM3 3.15964C3.05765 3.15964 3.11295 3.18261 3.15372 3.22351C3.19448 3.26441 3.21739 3.31987 3.21739 3.37771V5.99456C3.21739 6.05239 3.19448 6.10786 3.15372 6.14876C3.11295 6.18965 3.05765 6.21263 3 6.21263C2.94234 6.21263 2.88705 6.18965 2.84628 6.14876C2.80551 6.10786 2.7826 6.05239 2.7826 5.99456V3.37771C2.7826 3.31987 2.80551 3.26441 2.84628 3.22351C2.88705 3.18261 2.94234 3.15964 3 3.15964ZM4.30434 3.37771C4.30434 3.31987 4.28144 3.26441 4.24067 3.22351C4.1999 3.18261 4.14461 3.15964 4.08695 3.15964C4.0293 3.15964 3.974 3.18261 3.93323 3.22351C3.89246 3.26441 3.86956 3.31987 3.86956 3.37771V5.99456C3.86956 6.05239 3.89246 6.10786 3.93323 6.14876C3.974 6.18965 4.0293 6.21263 4.08695 6.21263C4.14461 6.21263 4.1999 6.18965 4.24067 6.14876C4.28144 6.10786 4.30434 6.05239 4.30434 5.99456V3.37771Z" fill="#FF0000"/>
<path d="M5.82608 2.06928C5.82608 2.18495 5.78027 2.29589 5.69873 2.37768C5.6172 2.45947 5.50661 2.50542 5.3913 2.50542H5.1739V6.43069C5.1739 6.66204 5.08229 6.88391 4.91921 7.04749C4.75614 7.21108 4.53496 7.30298 4.30434 7.30298H1.69564C1.46502 7.30298 1.24384 7.21108 1.08077 7.04749C0.917693 6.88391 0.826078 6.66204 0.826078 6.43069V2.50542H0.608687C0.493376 2.50542 0.382787 2.45947 0.301249 2.37768C0.219712 2.29589 0.173904 2.18495 0.173904 2.06928V1.63314C0.173904 1.51747 0.219712 1.40653 0.301249 1.32474C0.382787 1.24295 0.493376 1.197 0.608687 1.197H2.13043C2.13043 1.08133 2.17623 0.970392 2.25777 0.888599C2.33931 0.806807 2.4499 0.760857 2.56521 0.760857H3.43477C3.55009 0.760857 3.66067 0.806807 3.74221 0.888599C3.82375 0.970392 3.86956 1.08133 3.86956 1.197H5.3913C5.50661 1.197 5.6172 1.24295 5.69873 1.32474C5.78027 1.40653 5.82608 1.51747 5.82608 1.63314V2.06928ZM1.31217 2.50542L1.26086 2.53115V6.43069C1.26086 6.54637 1.30667 6.6573 1.38821 6.73909C1.46974 6.82088 1.58033 6.86684 1.69564 6.86684H4.30434C4.41965 6.86684 4.53024 6.82088 4.61178 6.73909C4.69331 6.6573 4.73912 6.54637 4.73912 6.43069V2.53115L4.68782 2.50542H1.31217ZM0.608687 2.06928H5.3913V1.63314H0.608687V2.06928Z" fill="#FF0000"/>
</svg>
